#!OML:ASF E:\Mandelcareful walks\Project 1\Capture day 1\Session 1\Subject1.ASF
:FULLY-SPECIFIED
:DEGREES
305
root 32.1828 15.5193 3.35187 -201.571 76.2085 -210.973
lowerback 36.466 -3.11217 0.689081
upperback 7.80781 -2.71359 -1.90622
thorax -9.58495 -0.766332 -1.40839
lowerneck -31.1001 2.55459 -1.7755
upperneck 15.8239 6.32182 -8.02652
head 10.3565 1.79237 -1.52708
rclavicle 3.51849e-014 -3.57812e-015
rhumerus -11.0401 0.652663 -80.0325
rradius 69.2488
rwrist -17.2124
rhand -23.1019 -20.1758
rfingers 7.12502
rthumb 3.34468 -50.1294
lclavicle 3.51849e-014 -3.57812e-015
lhumerus -5.79314 -12.5354 76.6448
lradius 68.3663
lwrist 18.253
lhand -35.728 -22.3989
lfingers 7.12502
lthumb -8.84728 7.39559
rfemur -42.2831 -12.7319 8.20187
rtibia 58.2593
rfoot -20.682 -3.10821
rtoes 2.45636
lfemur -38.8489 12.4978 -9.6513
ltibia 56.142
lfoot -11.5739 1.24625
ltoes -6.64717
306
root 32.2389 15.541 3.40807 -201.397 76.1159 -210.902
lowerback 36.4436 -3.0815 0.927911
upperback 7.7252 -2.59423 -1.84822
thorax -9.67255 -0.720923 -1.51806
lowerneck -30.8862 2.79817 -1.64797
upperneck 15.8565 6.69543 -8.41466
head 10.3729 1.92845 -1.62118
rclavicle -2.5842e-014 6.36111e-015
rhumerus -10.8248 0.823204 -79.7611
rradius 69.4427
rwrist -17.1912
rhand -23.1128 -19.9307
rfingers 7.12502
rthumb 3.33418 -49.8844
lclavicle -2.5842e-014 6.36111e-015
lhumerus -6.21956 -12.4982 77.2537
lradius 68.4302
lwrist 17.3016
lhand -36.0895 -22.6378
lfingers 7.12502
lthumb -9.19613 7.14164
rfemur -42.1701 -12.797 8.46906
rtibia 58.2253
rfoot -20.8692 -3.21204
rtoes 2.56189
lfemur -38.8109 12.0684 -9.51576
ltibia 54.1234
lfoot -11.9957 1.80882
ltoes -5.07598
307
root 32.2831 15.5495 3.45284 -201.515 75.9608 -211.188
lowerback 36.4297 -3.09405 1.07968
upperback 7.60485 -2.57622 -1.88128
thorax -9.80999 -0.722009 -1.63861
lowerneck -30.7367 3.20747 -1.26725
upperneck 16.0335 7.23874 -8.93999
head 10.4784 2.13157 -1.77529
rclavicle -1.15295e-014 -1.23246e-014
rhumerus -10.6005 1.05072 -79.6896
rradius 69.5347
rwrist -17.2459
rhand -23.2413 -19.5959
rfingers 7.12502
rthumb 3.21008 -49.5515
lclavicle -1.15295e-014 -1.23246e-014
lhumerus -6.59776 -12.354 77.6637
lradius 68.469
lwrist 15.9783
lhand -36.1828 -22.3218
lfingers 7.12502
lthumb -9.28623 7.45367
rfemur -42.1732 -12.9454 8.57137
rtibia 58.1833
rfoot -21.085 -3.21669
rtoes 2.91376
lfemur -38.8303 11.6237 -9.6206
ltibia 51.9631
lfoot -12.2571 2.44864
ltoes -5.29312
308
root 32.329 15.5607 3.4857 -202.139 75.7851 -211.741
lowerback 36.6154 -3.11519 1.15042
upperback 7.5875 -2.57214 -1.92121
thorax -9.90116 -0.71741 -1.71721
lowerneck -30.8405 3.5925 -1.04804
upperneck 16.406 7.80987 -9.29547
head 10.6896 2.34047 -1.8371
rclavicle -3.57812e-015 -3.49861e-014
rhumerus -10.4003 1.19255 -79.6517
rradius 69.8188
rwrist -17.3355
rhand -23.0153 -20.1873
rfingers 7.12502
rthumb 3.4283 -50.1395
lclavicle -3.57812e-015 -3.49861e-014
lhumerus -6.82671 -12.11 78.0094
lradius 68.2251
lwrist 14.516
lhand -35.1012 -22.9549
lfingers 7.12502
lthumb -8.24244 6.86427
rfemur -41.8241 -13.1896 8.50554
rtibia 58.0861
rfoot -21.3461 -3.053
rtoes 3.41491
lfemur -38.4322 11.0604 -9.74932
ltibia 49.7165
lfoot -12.6556 3.05258
ltoes -5.0239
309
root 32.3904 15.5744 3.51776 -201.979 75.6137 -211.534
lowerback 36.4952 -3.15314 1.32979
upperback 7.65054 -2.5483 -1.92563
thorax -9.7943 -0.70663 -1.82846
lowerneck -30.5938 4.07795 -0.642567
upperneck 16.2892 8.47034 -9.99828
head 10.7003 2.59588 -2.03501
rclavicle -1.86858e-014 -3.18055e-014
rhumerus -10.2486 1.24734 -79.6938
rradius 70.1875
rwrist -17.2495
rhand -23.0021 -20.0145
rfingers 7.12502
rthumb 3.44108 -49.9664
lclavicle -1.86858e-014 -3.18055e-014
lhumerus -7.08503 -12.0779 78.2665
lradius 68.0836
lwrist 13.687
lhand -34.249 -23.752
lfingers 7.12502
lthumb -7.41992 6.09787
rfemur -41.4623 -13.4748 8.65575
rtibia 58.0295
rfoot -21.6971 -2.95874
rtoes 3.65197
lfemur -37.9963 10.6266 -9.68686
ltibia 47.5692
lfoot -13.0677 3.78892
ltoes -3.63325
310
root 32.4338 15.575 3.53974 -201.914 75.6195 -211.596
lowerback 36.3568 -3.12832 1.55778
upperback 7.64091 -2.4531 -2.00739
thorax -9.76529 -0.669536 -2.07524
lowerneck -30.5755 4.45972 -0.595904
upperneck 16.5243 9.02531 -10.0914
head 10.8234 2.8279 -1.97492
rclavicle 4.37326e-015 3.77691e-014
rhumerus -10.0169 1.30784 -79.7786
rradius 70.506
rwrist -17.3092
rhand -22.9711 -20.3384
rfingers 7.12502
rthumb 3.47099 -50.2899
lclavicle 4.37326e-015 3.77691e-014
lhumerus -7.25512 -12.4303 78.4691
lradius 68.0727
lwrist 13.9186
lhand -34.2656 -24.0155
lfingers 7.12502
lthumb -7.4359 5.8338
rfemur -41.5029 -13.6791 8.84725
rtibia 58.008
rfoot -21.8158 -2.89158
rtoes 3.64948
lfemur -37.8808 10.5136 -9.73514
ltibia 45.6313
lfoot -13.1503 4.98626
ltoes -2.53292
311
root 32.4687 15.5749 3.55942 -202.169 75.5853 -211.917
lowerback 36.378 -3.04051 1.52109
upperback 7.62248 -2.35954 -2.02018
thorax -9.78856 -0.626595 -2.10633
lowerneck -30.293 5.06267 -0.0426787
upperneck 16.4222 9.84283 -10.98
head 10.8768 3.14315 -2.23252
rclavicle -3.45885e-014 -6.36111e-015
rhumerus -9.72831 1.46834 -79.7784
rradius 70.7901
rwrist -17.3576
rhand -22.7249 -20.8247
rfingers 7.12502
rthumb 3.70878 -50.7722
lclavicle -3.45885e-014 -6.36111e-015
lhumerus -7.25175 -12.5459 78.6604
lradius 67.8712
lwrist 13.669
lhand -34.0478 -24.3857
lfingers 7.12502
lthumb -7.22569 5.47096
rfemur -41.4957 -13.8955 8.92517
rtibia 58.0183
rfoot -21.8976 -2.838
rtoes 4.06007
lfemur -37.8482 10.4726 -9.90891
ltibia 43.971
lfoot -13.0849 6.26871
ltoes -2.14356
312
root 32.5152 15.5823 3.5721 -202.75 75.6047 -212.241
lowerback 36.6307 -2.9473 1.358
upperback 7.69172 -2.27993 -2.03783
thorax -9.79281 -0.577382 -2.06887
lowerneck -30.0724 5.57254 0.226576
upperneck 16.2522 10.5252 -11.4281
head 10.8688 3.43477 -2.30876
rclavicle -7.95139e-015 8.34896e-015
rhumerus -9.48427 1.57993 -79.8943
rradius 71.0811
rwrist -16.9935
rhand -22.1913 -21.118
rfingers 7.12502
rthumb 4.22405 -51.0559
lclavicle -7.95139e-015 8.34896e-015
lhumerus -7.30193 -12.4767 78.7215
lradius 67.853
lwrist 13.1394
lhand -33.6573 -24.6347
lfingers 7.12502
lthumb -6.84874 5.23452
rfemur -40.9835 -14.0431 8.93825
rtibia 58.0334
rfoot -22.1155 -2.66505
rtoes 5.26205
lfemur -37.4803 10.5405 -10.0392
ltibia 42.65
lfoot -13.1316 7.5666
ltoes -1.89859
313
root 32.5643 15.5813 3.57333 -203.673 75.7377 -212.919
lowerback 36.8976 -2.80556 1.19759
upperback 7.71101 -2.16126 -2.16352
thorax -9.86181 -0.513152 -2.16374
lowerneck -29.8759 6.19879 0.774432
upperneck 16.3041 11.3192 -12.011
head 10.9875 3.76357 -2.45642
rclavicle 3.97569e-016 -1.11319e-014
rhumerus -9.41553 1.63719 -80.1487
rradius 71.3858
rwrist -16.7634
rhand -22.1502 -20.8775
rfingers 7.12502
rthumb 4.26369 -50.8146
lclavicle 3.97569e-016 -1.11319e-014
lhumerus -7.49463 -12.6721 78.6814
lradius 68.0557
lwrist 13.292
lhand -33.3191 -24.32
lfingers 7.12502
lthumb -6.52223 5.5596
rfemur -40.4938 -14.0989 8.89565
rtibia 58.0814
rfoot -22.2852 -2.51694
rtoes 5.37359
lfemur -37.1126 10.9009 -10.3008
ltibia 41.655
lfoot -12.9958 8.96984
ltoes -1.55353
314
root 32.6023 15.5714 3.56752 -204.322 75.8353 -213.524
lowerback 37.0827 -2.62939 0.92726
upperback 7.6237 -2.04867 -2.17097
thorax -10.0111 -0.45974 -2.07236
lowerneck -29.655 6.87249 1.25348
upperneck 16.4067 12.2466 -12.6702
head 11.1458 4.13802 -2.59275
rclavicle 1.90833e-014 -1.15295e-014
rhumerus -9.36515 1.98292 -80.186
rradius 71.5693
rwrist -16.88
rhand -22.337 -20.4244
rfingers 7.12502
rthumb 4.08339 -50.3651
lclavicle 1.90833e-014 -1.15295e-014
lhumerus -7.70313 -12.7416 78.7965
lradius 68.1206
lwrist 13.4926
lhand -32.8728 -23.92
lfingers 7.12502
lthumb -6.09141 5.97238
rfemur -40.3927 -14.1726 8.8298
rtibia 58.1594
rfoot -22.4071 -2.48908
rtoes 4.35721
lfemur -37.1001 11.4082 -10.72
ltibia 40.9731
lfoot -12.2377 10.3829
ltoes -2.03857
315
root 32.63 15.5659 3.55225 -204.383 76.0817 -213.609
lowerback 37.2487 -2.39651 0.835573
upperback 7.49198 -1.80178 -2.11393
thorax -10.2018 -0.353032 -2.06031
lowerneck -29.2823 7.37518 1.59652
upperneck 16.4317 12.9626 -13.2349
head 11.2255 4.43202 -2.71423
rclavicle -1.98785e-014 5.96354e-015
rhumerus -9.36518 2.23819 -80.0858
rradius 71.6853
rwrist -16.9683
rhand -22.443 -20.1585
rfingers 7.12502
rthumb 3.98097 -50.101
lclavicle -1.98785e-014 5.96354e-015
lhumerus -7.81949 -12.8382 78.9848
lradius 68.0011
lwrist 13.0696
lhand -32.1258 -23.4129
lfingers 7.12502
lthumb -5.37023 6.49909
rfemur -40.5016 -14.1161 8.91455
rtibia 58.2303
rfoot -22.5369 -2.42837
rtoes 4.1476
lfemur -37.3051 11.8472 -10.9026
ltibia 40.5742
lfoot -10.9765 11.6598
ltoes -3.32724
316
root 32.6603 15.5697 3.52871 -204.323 76.3964 -213.531
lowerback 37.333 -2.19517 0.763908
upperback 7.47059 -1.5763 -2.07592
thorax -10.2426 -0.250756 -2.07239
lowerneck -29.0706 7.825 1.86045
upperneck 16.4975 13.5987 -13.6208
head 11.3247 4.69596 -2.77119
rclavicle -2.26615e-014 -1.66979e-014
rhumerus -9.17684 2.55147 -80.0481
rradius 71.7251
rwrist -16.9148
rhand -22.5753 -19.7884
rfingers 7.12502
rthumb 3.85323 -49.7334
lclavicle -2.26615e-014 -1.66979e-014
lhumerus -7.82266 -12.7141 79.0879
lradius 67.8144
lwrist 12.196
lhand -31.2138 -23.0229
lfingers 7.12502
lthumb -4.48956 6.90954
rfemur -40.4244 -14.1073 9.08337
rtibia 58.1895
rfoot -22.5653 -2.37147
rtoes 3.75417
lfemur -37.5163 12.1772 -10.9341
ltibia 40.3746
lfoot -9.38825 12.6635
ltoes -5.45285
317
root 32.7014 15.5597 3.49586 -203.547 76.4592 -212.594
lowerback 37.4186 -2.16027 0.863052
upperback 7.50886 -1.48288 -2.05626
thorax -10.2279 -0.206175 -2.14116
lowerneck -28.6079 8.27153 2.25064
upperneck 16.3782 14.1683 -14.0821
head 11.3256 4.95267 -2.89073
rclavicle 7.55382e-015 1.51076e-014
rhumerus -9.05714 2.69685 -80.1302
rradius 71.7595
rwrist -16.5368
rhand -22.3483 -19.6855
rfingers 7.12502
rthumb 4.07246 -49.6263
lclavicle 7.55382e-015 1.51076e-014
lhumerus -7.86083 -12.9277 79.1505
lradius 67.5625
lwrist 12.2635
lhand -31.2044 -23.5026
lfingers 7.12502
lthumb -4.48052 6.42999
rfemur -39.9917 -14.4551 9.25836
rtibia 58.1477
rfoot -22.5775 -2.34191
rtoes 2.80615
lfemur -37.3255 12.012 -10.6541
ltibia 40.351
lfoot -9.03111 12.7504
ltoes -2.05995
318
root 32.754 15.5624 3.45638 -202.134 76.3281 -210.676
lowerback 37.7841 -2.28044 1.12478
upperback 7.5604 -1.49805 -2.01051
thorax -10.3036 -0.20706 -2.22262
lowerneck -28.3327 8.6955 2.41698
upperneck 16.3133 14.8424 -14.6165
head 11.3886 5.22502 -2.97547
rclavicle 3.37934e-014 2.18663e-014
rhumerus -9.035 2.87116 -80.1927
rradius 71.7429
rwrist -16.2
rhand -22.0133 -20.0469
rfingers 7.12502
rthumb 4.3959 -49.9813
lclavicle 3.37934e-014 2.18663e-014
lhumerus -8.09815 -13.502 79.2115
lradius 67.4155
lwrist 13.096
lhand -32.0447 -23.6265
lfingers 7.12502
lthumb -5.29186 6.28742
rfemur -38.9996 -14.907 9.37347
rtibia 58.0437
rfoot -22.7217 -2.18804
rtoes 2.61411
lfemur -37.1065 12.2955 -10.6761
ltibia 40.4703
lfoot -7.44521 12.5861
ltoes -5.22558
